<svg width="72" height="72" viewBox="0 0 72 72" fill="none" xmlns="http://www.w3.org/2000/svg">
<g clip-path="url(#clip0_338_1103)">
<path d="M72 36C72 16.1157 55.8843 0 36 0C16.1157 0 0 16.1157 0 36C0 53.972 13.1625 68.8641 30.375 71.5641V46.4062H21.2343V36H30.375V28.0687C30.375 19.0476 35.7469 14.0625 43.9734 14.0625C47.9109 14.0625 52.0312 14.7656 52.0312 14.7656V23.625H47.4891C43.0172 23.625 41.625 26.4024 41.625 29.25V36H51.6093L50.0133 46.4062H41.625V71.5641C58.8375 68.8641 72 53.972 72 36Z" fill="#1877F2"/>
<path d="M50.0133 46.4062L51.6093 36H41.625V29.25C41.625 26.4024 43.0172 23.625 47.4891 23.625H52.0313V14.7656C52.0313 14.7656 47.9109 14.0625 43.9734 14.0625C35.747 14.0625 30.375 19.0476 30.375 28.0687V36H21.2343V46.4062H30.375V71.5641C32.2101 71.8524 34.0875 72 36 72C37.9125 72 39.7899 71.8524 41.625 71.5641V46.4062H50.0133Z" fill="white"/>
</g>
<defs>
<clipPath id="clip0_338_1103">
<rect width="72" height="72" fill="white"/>
</clipPath>
</defs>
</svg>
