<svg width="72" height="72" viewBox="0 0 72 72" fill="none" xmlns="http://www.w3.org/2000/svg">
<g clip-path="url(#clip0_258_1045)">
<mask id="mask0_258_1045" style="mask-type:luminance" maskUnits="userSpaceOnUse" x="0" y="0" width="73" height="73">
<path d="M0 36.0002C0 55.8826 16.1177 72.0002 36.0001 72.0002C55.8825 72.0002 72.0001 55.8826 72.0001 36.0002C72.0001 16.1178 55.8825 9.91821e-05 36.0001 9.91821e-05C16.1177 9.91821e-05 0 16.1178 0 36.0002Z" fill="white"/>
</mask>
<g mask="url(#mask0_258_1045)">
<path d="M0 36.0002C0 55.8826 16.1177 72.0002 36.0001 72.0002C55.8825 72.0002 72.0001 55.8826 72.0001 36.0002C72.0001 16.1178 55.8825 9.91821e-05 36.0001 9.91821e-05C16.1177 9.91821e-05 0 16.1178 0 36.0002Z" fill="url(#paint0_linear_258_1045)"/>
</g>
<mask id="mask1_258_1045" style="mask-type:luminance" maskUnits="userSpaceOnUse" x="-5" y="-5" width="82" height="82">
<path d="M-4.85178 -4.85133H76.6021V76.2709H-4.85178V-4.85133Z" fill="white"/>
</mask>
<g mask="url(#mask1_258_1045)">
<path d="M24.3687 38.6313L28.6399 50.4533C28.6399 50.4533 29.1738 51.559 29.7458 51.559C30.3179 51.559 38.8221 42.7115 38.8221 42.7115L48.2798 24.4445L24.5213 35.5801L24.3687 38.6313Z" fill="#C8DAEA"/>
</g>
<mask id="mask2_258_1045" style="mask-type:luminance" maskUnits="userSpaceOnUse" x="-5" y="-5" width="82" height="82">
<path d="M-4.85178 -4.85133H76.6021V76.2709H-4.85178V-4.85133Z" fill="white"/>
</mask>
<g mask="url(#mask2_258_1045)">
<path d="M30.0317 41.6632L29.2116 50.377C29.2116 50.377 28.8684 53.0465 31.5379 50.377C34.2074 47.7075 36.7625 45.6482 36.7625 45.6482" fill="#A9C6D8"/>
</g>
<mask id="mask3_258_1045" style="mask-type:luminance" maskUnits="userSpaceOnUse" x="-5" y="-5" width="82" height="82">
<path d="M-4.85178 -4.85133H76.6021V76.2709H-4.85178V-4.85133Z" fill="white"/>
</mask>
<g mask="url(#mask3_258_1045)">
<path d="M24.4456 39.0535L15.6607 36.1909C15.6607 36.1909 14.6121 35.7653 14.9489 34.7991C15.0184 34.5999 15.1585 34.4305 15.578 34.1379C17.525 32.7812 51.6098 20.5299 51.6098 20.5299C51.6098 20.5299 52.5723 20.2059 53.1413 20.4213C53.4012 20.5199 53.5672 20.6312 53.7069 21.0376C53.7579 21.1855 53.7872 21.5001 53.7832 21.8131C53.7802 22.0389 53.7527 22.2479 53.7326 22.5758C53.5251 25.9257 47.3136 50.9237 47.3136 50.9237C47.3136 50.9237 46.942 52.3866 45.6103 52.4364C45.1246 52.4547 44.5352 52.3561 43.8304 51.7499C41.2174 49.5021 32.1847 43.4318 30.1891 42.097C30.0762 42.022 30.0445 41.924 30.0253 41.8285C29.9972 41.6882 30.1473 41.5131 30.1473 41.5131C30.1473 41.5131 45.8751 27.5325 46.2937 26.0657C46.326 25.9519 46.2043 25.8958 46.0392 25.9449C44.9946 26.3293 26.886 37.7639 24.8877 39.0269C24.7708 39.1008 24.4431 39.0532 24.4431 39.0532" fill="white"/>
</g>
</g>
<defs>
<linearGradient id="paint0_linear_258_1045" x1="36.0001" y1="71.9999" x2="36.0001" y2="-0.000205903" gradientUnits="userSpaceOnUse">
<stop stop-color="#1D93D2"/>
<stop offset="1" stop-color="#38B0E3"/>
</linearGradient>
<clipPath id="clip0_258_1045">
<rect width="72" height="72" fill="white"/>
</clipPath>
</defs>
</svg>
