<svg width="72" height="72" viewBox="0 0 72 72" fill="none" xmlns="http://www.w3.org/2000/svg">
<g clip-path="url(#clip0_43_2215)">
<ellipse cx="35.5" cy="38.5" rx="25.5" ry="24.5" fill="white"/>
<path d="M36.9843 17.9832C33.908 17.9833 30.8898 18.8214 28.2538 20.4073C25.6178 21.9932 23.4635 24.2671 22.0222 26.9849C20.5809 29.7026 19.9071 32.7617 20.073 35.8335C20.2389 38.9053 21.2383 41.8739 22.964 44.4207L21.3089 50.8057L27.9635 49.2531C30.1851 50.651 32.7013 51.5134 35.3134 51.7722C37.9255 52.0309 40.562 51.679 43.0147 50.7441C45.4675 49.8092 47.6693 48.317 49.4465 46.3853C51.2237 44.4536 52.5275 42.1352 53.2551 39.6131C53.9827 37.0911 54.114 34.4345 53.6388 31.853C53.1636 29.2715 52.0949 26.8358 50.517 24.7381C48.9391 22.6405 46.8951 20.9383 44.5466 19.766C42.198 18.5937 39.6091 17.9834 36.9843 17.9832ZM45.3121 44.1656C42.9433 45.2765 37.9976 44.6968 32.7873 40.2379C27.577 35.779 26.2405 30.982 26.9718 28.4701C27.703 25.9583 30.576 25.4942 31.118 25.6142C31.6599 25.7341 34.37 30.0306 34.0008 30.5318C33.6315 31.033 31.8477 32.817 31.8477 32.817C31.8477 32.817 31.7726 34.6423 35.122 37.5088C38.4714 40.3753 40.2632 40.0191 40.2632 40.0191C40.2632 40.0191 41.7502 37.98 42.1882 37.5386C42.6263 37.0972 47.2901 39.1109 47.4923 39.6279C47.6945 40.1448 47.6801 43.055 45.3114 44.1656H45.3121Z" fill="url(#paint0_linear_43_2215)"/>
<path d="M36 0C16.1177 0 0 16.1177 0 36C0 55.8823 16.1177 72 36 72C55.8823 72 72 55.8823 72 36C72 16.1177 55.8823 0 36 0ZM36.9844 55.3994C33.605 55.4043 30.2775 54.5692 27.3009 52.9691L16.4109 55.6875L19.1693 45.0281C16.9466 41.1125 16.076 36.5736 16.6921 32.1135C17.3083 27.6534 19.3768 23.5205 22.5779 20.3542C25.7789 17.1878 29.9341 15.1644 34.4007 14.597C38.8673 14.0295 43.3964 14.9495 47.2875 17.2148C51.1787 19.48 54.215 22.9643 55.9269 27.1287C57.6388 31.293 57.9309 35.9054 56.7579 40.2524C55.585 44.5995 53.0124 48.4389 49.4381 51.1769C45.8638 53.9149 41.4869 55.3989 36.9844 55.3994Z" fill="url(#paint1_linear_43_2215)"/>
</g>
<defs>
<linearGradient id="paint0_linear_43_2215" x1="1.93363" y1="69.9683" x2="70.347" y2="1.55492" gradientUnits="userSpaceOnUse">
<stop stop-color="#209142"/>
<stop offset="1" stop-color="#56D263"/>
</linearGradient>
<linearGradient id="paint1_linear_43_2215" x1="1.98281" y1="70.0172" x2="70.3962" y2="1.60383" gradientUnits="userSpaceOnUse">
<stop stop-color="#209142"/>
<stop offset="1" stop-color="#56D263"/>
</linearGradient>
<clipPath id="clip0_43_2215">
<rect width="72" height="72" rx="36" fill="white"/>
</clipPath>
</defs>
</svg>
