<svg width="668" height="504" viewBox="0 0 668 504" fill="none" xmlns="http://www.w3.org/2000/svg">
<g opacity="0.6" clip-path="url(#clip0_23_526)">
<path d="M113.787 399.361L69.5504 383.983C64.6802 359.982 65.7723 335.161 72.7317 311.676C89.5135 351.873 141.855 363.112 170.917 395.648C179.903 405.864 186.463 417.962 190.111 431.044C193.759 444.126 194.401 457.857 191.99 471.22L200.461 503.194C178.576 500.697 157.496 493.509 138.673 482.126C119.85 470.743 103.73 455.434 91.4259 437.256C84.6246 426.99 79.1498 415.913 75.1305 404.286C94.226 402.938 113.787 399.361 113.787 399.361Z" fill="#E4E4E4"/>
<path d="M414.537 34.5879V386.068L413.31 400.703C411.158 426.107 400.342 450.016 382.655 468.463C380.147 471.073 377.524 473.545 374.784 475.878C371.413 478.771 367.866 481.457 364.166 483.921C362.049 485.337 359.879 486.673 357.674 487.938C344.848 495.308 330.681 500.075 315.991 501.963H210.731C202.354 501.97 194.259 498.955 187.946 493.477C184.821 490.771 182.202 487.535 180.209 483.921C177.425 478.85 175.969 473.162 175.976 467.384V34.5879C175.988 25.4182 179.654 16.6274 186.171 10.1434C192.688 3.65946 201.523 0.0116551 210.74 0H379.782C380.183 0 380.574 0.00883856 380.974 0.0176868C381.232 0.0265351 381.49 0.0353861 381.748 0.0619309C382.095 0.0707792 382.442 0.0973256 382.78 0.132719C383.215 0.159264 383.642 0.203464 384.069 0.256554C384.46 0.309643 384.852 0.362735 385.243 0.424673C385.323 0.433521 385.394 0.451212 385.474 0.46006C385.972 0.539695 386.47 0.628175 386.959 0.734355C387.448 0.831686 387.947 0.946718 388.427 1.07059C388.774 1.15908 389.129 1.2564 389.476 1.35373C389.485 1.35373 389.503 1.36259 389.512 1.36259C390.534 1.66343 391.548 2.0085 392.544 2.40672C392.856 2.5217 393.167 2.65448 393.469 2.7872L393.603 2.84029C393.852 2.94647 394.092 3.05264 394.332 3.16767C395.052 3.49506 395.764 3.85784 396.466 4.23832C397.622 4.87225 398.741 5.56939 399.819 6.32655C400.166 6.56541 400.504 6.82206 400.833 7.07866C401.109 7.28217 401.384 7.49453 401.651 7.72458C401.674 7.73632 401.695 7.75121 401.713 7.76883C401.749 7.79537 401.784 7.83076 401.82 7.8573C402.06 8.04311 402.291 8.23779 402.514 8.43245C402.949 8.80407 403.376 9.1934 403.794 9.59157C403.91 9.69775 404.025 9.80392 404.141 9.91895C404.257 10.0251 404.363 10.1402 404.479 10.2552C404.595 10.3614 404.701 10.4764 404.808 10.5826C404.872 10.6371 404.931 10.6962 404.986 10.7595C405.306 11.0958 405.617 11.4409 405.92 11.7859C406.302 12.2195 406.676 12.6619 407.023 13.1132C407.325 13.4848 407.609 13.8564 407.885 14.2369C408.143 14.582 408.383 14.9271 408.623 15.281C408.688 15.3691 408.747 15.4606 408.801 15.5553C409.05 15.9181 409.281 16.2897 409.513 16.6613C410.091 17.5993 410.615 18.5726 411.096 19.5547C411.274 19.9264 411.442 20.2891 411.603 20.6608C411.807 21.112 411.994 21.5633 412.172 22.0145C412.243 22.1827 412.305 22.3596 412.367 22.5277C412.465 22.7843 412.554 23.041 412.643 23.2976C412.741 23.5807 412.839 23.8727 412.928 24.1558L413.141 24.846C413.266 25.2619 413.372 25.6689 413.479 26.0848C413.541 26.3325 413.604 26.5803 413.657 26.8369C414.074 28.6439 414.345 30.4814 414.466 32.3316C414.475 32.5617 414.493 32.7829 414.502 33.013C414.528 33.535 414.537 34.057 414.537 34.5879Z" fill="#023047"/>
<path d="M173.564 157.471C172.527 157.47 171.533 157.06 170.799 156.33C170.066 155.6 169.653 154.611 169.652 153.579V127.112C169.651 126.6 169.752 126.093 169.948 125.621C170.144 125.148 170.432 124.718 170.796 124.356C171.159 123.994 171.591 123.707 172.066 123.511C172.541 123.315 173.05 123.214 173.564 123.214C174.078 123.214 174.588 123.315 175.063 123.511C175.538 123.707 175.969 123.994 176.332 124.356C176.696 124.718 176.984 125.148 177.18 125.621C177.376 126.093 177.477 126.6 177.476 127.112V153.579C177.475 154.611 177.062 155.6 176.329 156.33C175.596 157.06 174.601 157.47 173.564 157.471Z" fill="#023047"/>
<path d="M172.782 106.094C171.744 106.093 170.75 105.682 170.017 104.953C169.283 104.223 168.871 103.234 168.87 102.202V75.7344C168.871 74.7031 169.284 73.7146 170.018 72.986C170.751 72.2573 171.745 71.848 172.782 71.848C173.818 71.848 174.812 72.2573 175.546 72.986C176.279 73.7146 176.692 74.7031 176.694 75.7344V102.202C176.692 103.234 176.28 104.223 175.547 104.953C174.813 105.682 173.819 106.093 172.782 106.094Z" fill="#023047"/>
<path d="M268.838 12.859C268.839 11.8271 269.251 10.8378 269.985 10.1081C270.718 9.37846 271.713 8.968 272.75 8.9668H299.351C300.389 8.9668 301.384 9.37686 302.118 10.1068C302.851 10.8367 303.263 11.8267 303.263 12.859C303.263 13.8913 302.851 14.8813 302.118 15.6113C301.384 16.3412 300.389 16.7513 299.351 16.7513H272.75C271.713 16.7501 270.718 16.3396 269.985 15.6099C269.251 14.8802 268.839 13.8909 268.838 12.859Z" fill="white"/>
<path d="M173.564 202.621C172.527 202.62 171.533 202.21 170.799 201.48C170.066 200.75 169.653 199.761 169.652 198.729V172.262C169.651 171.75 169.752 171.243 169.948 170.771C170.144 170.298 170.432 169.868 170.796 169.506C171.159 169.144 171.591 168.857 172.066 168.661C172.541 168.465 173.05 168.364 173.564 168.364C174.078 168.364 174.588 168.465 175.063 168.661C175.538 168.857 175.969 169.144 176.332 169.506C176.696 169.868 176.984 170.298 177.18 170.771C177.376 171.243 177.477 171.75 177.476 172.262V198.729C177.475 199.761 177.062 200.75 176.329 201.48C175.596 202.21 174.601 202.62 173.564 202.621Z" fill="#023047"/>
<path d="M417.239 145.108C416.202 145.106 415.208 144.696 414.474 143.966C413.741 143.237 413.328 142.247 413.327 141.215V114.748C413.326 114.236 413.427 113.73 413.623 113.257C413.82 112.784 414.107 112.354 414.471 111.992C414.834 111.63 415.266 111.343 415.741 111.147C416.216 110.951 416.725 110.85 417.239 110.85C417.753 110.85 418.263 110.951 418.738 111.147C419.213 111.343 419.644 111.63 420.007 111.992C420.371 112.354 420.659 112.784 420.855 113.257C421.051 113.73 421.152 114.236 421.151 114.748V141.215C421.15 142.247 420.737 143.237 420.004 143.966C419.271 144.696 418.276 145.106 417.239 145.108Z" fill="#023047"/>
<path d="M314.217 16.7513C316.378 16.7513 318.129 15.0087 318.129 12.859C318.129 10.7094 316.378 8.9668 314.217 8.9668C312.056 8.9668 310.305 10.7094 310.305 12.859C310.305 15.0087 312.056 16.7513 314.217 16.7513Z" fill="white"/>
<path d="M397.234 47.075H193.291C193.055 47.0698 192.831 46.9729 192.665 46.8049C192.5 46.637 192.408 46.4115 192.408 46.1766C192.408 45.9417 192.5 45.7162 192.665 45.5483C192.831 45.3803 193.055 45.2834 193.291 45.2782H397.234C397.47 45.2834 397.695 45.3803 397.86 45.5483C398.025 45.7162 398.117 45.9417 398.117 46.1766C398.117 46.4115 398.025 46.637 397.86 46.8049C397.695 46.9729 397.47 47.0698 397.234 47.075Z" fill="white"/>
<path d="M208.748 40.6912C211.67 40.6912 214.04 38.2814 214.04 35.3087C214.04 32.3361 211.67 29.9263 208.748 29.9263C205.825 29.9263 203.456 32.3361 203.456 35.3087C203.456 38.2814 205.825 40.6912 208.748 40.6912Z" fill="white"/>
<path d="M227.029 40.6912C229.951 40.6912 232.321 38.2814 232.321 35.3087C232.321 32.3361 229.951 29.9263 227.029 29.9263C224.106 29.9263 221.737 32.3361 221.737 35.3087C221.737 38.2814 224.106 40.6912 227.029 40.6912Z" fill="white"/>
<path d="M245.31 40.6912C248.232 40.6912 250.602 38.2814 250.602 35.3087C250.602 32.3361 248.232 29.9263 245.31 29.9263C242.387 29.9263 240.018 32.3361 240.018 35.3087C240.018 38.2814 242.387 40.6912 245.31 40.6912Z" fill="white"/>
<path d="M386.227 31.2604H373.241C372.984 31.2655 372.739 31.3708 372.559 31.5537C372.379 31.7366 372.278 31.9825 372.278 32.2387C372.278 32.4948 372.379 32.7407 372.559 32.9236C372.739 33.1065 372.984 33.2118 373.241 33.217H386.227C386.485 33.2118 386.73 33.1065 386.91 32.9236C387.09 32.7407 387.191 32.4948 387.191 32.2387C387.191 31.9825 387.09 31.7366 386.91 31.5537C386.73 31.3708 386.485 31.2655 386.227 31.2604Z" fill="white"/>
<path d="M386.227 34.9325H373.241C372.984 34.9376 372.739 35.0429 372.559 35.2258C372.379 35.4087 372.278 35.6547 372.278 35.9108C372.278 36.1669 372.379 36.4129 372.559 36.5958C372.739 36.7787 372.984 36.884 373.241 36.8891H386.227C386.485 36.884 386.73 36.7787 386.91 36.5958C387.09 36.4129 387.191 36.1669 387.191 35.9108C387.191 35.6547 387.09 35.4087 386.91 35.2258C386.73 35.0429 386.485 34.9376 386.227 34.9325Z" fill="white"/>
<path d="M386.227 38.5999H373.241C372.984 38.605 372.739 38.7103 372.559 38.8932C372.379 39.0761 372.278 39.322 372.278 39.5782C372.278 39.8343 372.379 40.0802 372.559 40.2631C372.739 40.446 372.984 40.5513 373.241 40.5564H386.227C386.485 40.5513 386.73 40.446 386.91 40.2631C387.09 40.0802 387.191 39.8343 387.191 39.5782C387.191 39.322 387.09 39.0761 386.91 38.8932C386.73 38.7103 386.485 38.605 386.227 38.5999Z" fill="white"/>
<path d="M241.87 184.389C241.958 185.644 242.329 186.862 242.956 187.954C244.357 190.229 246.477 191.978 248.983 192.927C252.031 194.168 255.43 194.206 258.665 193.93C261.67 193.673 264.644 193.077 267.66 192.954C269.992 192.88 272.327 192.935 274.653 193.12C279.166 193.439 283.66 194.03 288.125 194.747C289.335 194.939 290.541 195.145 291.746 195.365C291.86 195.375 291.972 195.396 292.082 195.427C292.104 195.436 292.139 195.429 292.159 195.441C292.195 195.464 292.012 195.384 292.123 195.475C292.278 195.637 292.416 195.814 292.535 196.003L294.184 198.115C294.618 198.779 295.129 199.389 295.708 199.933C296.139 200.264 296.658 200.461 297.202 200.499C297.745 200.537 298.287 200.413 298.76 200.145C299.254 199.834 299.649 199.389 299.896 198.862C300.275 198.17 300.727 197.52 301.246 196.923C303.208 194.646 305.934 193.245 308.215 191.329C309.32 190.439 310.263 189.367 311.002 188.159C311.634 187.066 312.026 185.853 312.154 184.599C312.354 182.029 311.711 179.464 310.321 177.289C308.884 174.962 306.82 173.082 304.363 171.863C301.574 170.532 298.568 169.712 295.487 169.443C292.228 169.137 288.953 169.029 285.681 169.12C282.015 169.161 278.356 169.321 274.704 169.601C271.046 169.883 267.403 170.283 263.774 170.802C260.27 171.243 256.793 171.877 253.36 172.701C250.284 173.358 247.435 174.806 245.098 176.901C244.06 177.852 243.235 179.011 242.679 180.302C242.122 181.592 241.847 182.985 241.87 184.389Z" fill="#CACCCD"/>
<path d="M292.714 175.885H258.014C257.327 175.886 256.668 176.158 256.181 176.642C255.695 177.126 255.422 177.781 255.421 178.466V178.882C255.422 179.566 255.695 180.222 256.181 180.705C256.668 181.189 257.327 181.461 258.014 181.462H292.714C293.402 181.461 294.061 181.189 294.547 180.705C295.033 180.222 295.307 179.566 295.308 178.882V178.466C295.307 177.781 295.033 177.126 294.547 176.642C294.061 176.158 293.402 175.886 292.714 175.885Z" fill="white"/>
<path d="M292.714 182.964H258.014C257.327 182.965 256.668 183.237 256.181 183.721C255.695 184.205 255.422 184.86 255.421 185.545V185.961C255.422 186.645 255.695 187.301 256.181 187.784C256.668 188.268 257.327 188.54 258.014 188.541H292.714C293.402 188.54 294.061 188.268 294.547 187.784C295.033 187.301 295.307 186.645 295.308 185.961V185.545C295.307 184.86 295.033 184.205 294.547 183.721C294.061 183.237 293.402 182.965 292.714 182.964Z" fill="white"/>
<path d="M364.76 133.069C364.672 134.324 364.3 135.542 363.673 136.634C362.272 138.909 360.153 140.658 357.647 141.607C354.598 142.848 351.2 142.886 347.965 142.61C344.96 142.352 341.986 141.757 338.97 141.634C336.638 141.56 334.303 141.615 331.977 141.8C327.464 142.119 322.969 142.71 318.504 143.427C317.295 143.618 316.088 143.824 314.884 144.045C314.77 144.055 314.658 144.076 314.548 144.107C314.526 144.116 314.491 144.109 314.471 144.121C314.434 144.144 314.618 144.064 314.506 144.155C314.352 144.317 314.213 144.494 314.094 144.683L312.445 146.794C312.012 147.459 311.5 148.069 310.922 148.613C310.491 148.944 309.971 149.141 309.428 149.179C308.885 149.216 308.342 149.093 307.869 148.825C307.375 148.514 306.981 148.069 306.734 147.542C306.355 146.849 305.902 146.2 305.384 145.603C303.422 143.326 300.695 141.925 298.415 140.009C297.31 139.119 296.367 138.047 295.627 136.839C294.996 135.746 294.604 134.533 294.476 133.279C294.275 130.709 294.919 128.144 296.309 125.969C297.746 123.642 299.81 121.762 302.267 120.543C305.055 119.212 308.062 118.392 311.143 118.123C314.402 117.817 317.676 117.709 320.948 117.8C324.614 117.84 328.273 118.001 331.926 118.281C335.583 118.563 339.227 118.963 342.855 119.482C346.359 119.923 349.836 120.556 353.27 121.381C356.346 122.037 359.194 123.486 361.532 125.581C362.57 126.532 363.394 127.691 363.951 128.982C364.507 130.272 364.783 131.665 364.76 133.069Z" fill="#CACCCD"/>
<path d="M311.322 127.146V127.562C311.323 128.246 311.597 128.902 312.083 129.385C312.569 129.869 313.228 130.141 313.916 130.142H348.615C349.303 130.141 349.962 129.869 350.448 129.385C350.934 128.902 351.208 128.246 351.209 127.562V127.146C351.208 126.461 350.934 125.806 350.448 125.322C349.962 124.838 349.303 124.566 348.615 124.565H313.916C313.228 124.566 312.569 124.838 312.083 125.322C311.597 125.806 311.323 126.461 311.322 127.146Z" fill="white"/>
<path d="M311.322 134.225V134.641C311.323 135.325 311.597 135.981 312.083 136.464C312.569 136.948 313.228 137.22 313.916 137.221H348.615C349.303 137.22 349.962 136.948 350.448 136.464C350.934 135.981 351.208 135.325 351.209 134.641V134.225C351.208 133.54 350.934 132.885 350.448 132.401C349.962 131.917 349.303 131.645 348.615 131.644H313.916C313.228 131.645 312.569 131.917 312.083 132.401C311.597 132.885 311.323 133.54 311.322 134.225Z" fill="white"/>
<path d="M533.222 491.092L522.203 491.091L516.961 448.806L533.223 448.807L533.222 491.092Z" fill="#EB8F4D"/>
<path d="M532.928 487.509L521.171 482.758L520.824 482.616L514.332 487.509C510.769 487.509 507.344 488.877 504.771 491.328C502.198 493.78 500.675 497.125 500.521 500.666C500.503 500.861 500.503 501.065 500.503 501.268V501.719H536.032V487.509H532.928Z" fill="black"/>
<path d="M507.417 480.89L497.023 484.528L477.972 446.371L493.313 441.001L507.417 480.89Z" fill="#EB8F4D"/>
<path d="M505.945 477.607L493.27 477.007L492.896 476.988L488.404 483.748C485.043 484.924 482.268 487.346 480.659 490.508C479.049 493.67 478.729 497.329 479.765 500.72C479.813 500.91 479.881 501.102 479.949 501.294L480.099 501.719L513.614 489.987L508.873 476.582L505.945 477.607Z" fill="black"/>
<path d="M537.115 308.766C547.196 308.377 534.709 388.303 534.709 388.303C534.709 388.303 538.361 458.474 537.587 462.157C536.813 465.839 537.489 475.771 537.489 475.771C535.514 472.195 515.139 474.894 515.139 474.894L512.367 403.775L498.215 346.793L478.594 384.989L497.399 443.618C497.399 443.618 505.015 450.629 504.205 453.4C503.395 456.171 483.448 462.419 479.782 462.561C476.116 462.702 477.771 458.073 477.594 453.514C477.416 448.955 460.167 406.702 454.1 392.326C448.033 377.95 452.749 357.678 455.846 342.948C458.943 328.218 475.237 300.575 475.237 300.575C495.461 277.879 527.035 309.155 537.115 308.766Z" fill="black"/>
<path d="M531.88 321.579C506.881 321.58 493.105 316.601 485.789 312.155C476.844 306.719 475.313 300.987 475.252 300.745L475.235 300.675L476.105 289.774L476.486 288.926C478.241 285.018 478.474 280.601 477.139 276.532L477.112 276.448L477.119 276.361L482.964 200.934L503.65 194.192L509.667 188.177L536.46 187.79L540.194 195.32L561.316 203.232L550.939 264.689L545.964 273.22L547.966 282.513L547.952 282.597L541.426 321.352L541.067 321.368C537.848 321.511 534.786 321.582 531.88 321.579Z" fill="#E6E6E6"/>
<path d="M542.301 162.418C541.497 168.25 538.398 173.527 533.686 177.088C528.974 180.648 523.034 182.203 517.171 181.409C511.308 180.615 506.002 177.538 502.418 172.853C498.833 168.169 497.265 162.261 498.056 156.427L498.1 156.111C499.025 150.355 502.187 145.191 506.904 141.734C511.621 138.276 517.515 136.802 523.315 137.63C529.115 138.457 534.355 141.52 537.906 146.157C541.456 150.794 543.032 156.634 542.294 162.417L542.301 162.418Z" fill="#EB8F4D"/>
<path d="M536.619 173.859C537.765 171.542 538.943 169.054 538.621 166.492C538.299 163.929 535.773 161.479 533.292 162.241C531.809 162.696 530.688 164.153 529.137 164.228C527.004 164.331 525.781 161.901 525.117 159.882L522.412 151.656C519.815 153.67 516.804 155.088 513.592 155.81C510.38 156.532 507.048 156.54 503.833 155.833C501.322 155.262 498.786 154.148 497.313 152.046C495.84 149.943 495.849 146.682 497.869 145.092C498.859 144.313 500.178 144.017 501.125 143.185C501.712 142.669 502.117 141.978 502.279 141.216C502.441 140.453 502.352 139.659 502.025 138.95C501.699 138.242 501.151 137.657 500.464 137.282C499.778 136.907 498.988 136.762 498.211 136.868L505.021 136.022L502.992 132.371C503.763 132.893 504.636 133.249 505.553 133.417C506.471 133.584 507.413 133.559 508.321 133.343C510.153 133.015 511.878 132.265 513.67 131.764C518.015 130.66 522.602 130.998 526.736 132.725C530.87 134.452 534.325 137.475 536.574 141.333C538.25 140.777 540.056 140.74 541.754 141.227C543.451 141.715 544.959 142.704 546.079 144.064C547.902 146.366 548.397 149.438 548.468 152.367C548.6 158.144 547.335 163.868 544.777 169.055C544.043 170.703 542.99 172.19 541.676 173.431C541.015 174.047 540.226 174.511 539.366 174.791C538.505 175.071 537.594 175.16 536.695 175.052" fill="black"/>
<path d="M284.177 373.214C284.072 373.214 283.967 373.212 283.861 373.208C282.623 373.163 281.414 372.822 280.337 372.212C279.26 371.603 278.347 370.744 277.676 369.708C272.647 362.23 266.475 355.578 259.384 349.994C255.091 346.58 250.605 343.406 246.267 340.336C235.075 332.418 224.536 324.962 218.686 314.658C205.93 292.191 220.952 260.898 242.412 246.864C266.482 231.124 298.143 228.656 328.771 228.332C331.954 228.298 335.139 228.282 338.326 228.282C393.512 228.303 448.582 233.313 502.856 243.25C520.904 246.563 539.795 250.621 554.976 260.47C570.066 270.261 579.239 285.678 578.344 299.75C577.037 320.292 555.151 335.641 535.221 339.654C516.225 343.476 496.49 340.894 475.598 338.158C470.986 337.555 466.217 336.931 461.501 336.388C410.249 330.494 313.969 348.661 309.896 349.437L305.855 350.207L290.175 370.283C289.469 371.198 288.561 371.939 287.521 372.447C286.48 372.956 285.336 373.218 284.177 373.214Z" fill="#57CC99"/>
<path d="M512.408 273.002H295.783C294.533 273.002 293.334 272.508 292.45 271.629C291.566 270.749 291.07 269.557 291.07 268.313C291.07 267.069 291.566 265.876 292.45 264.997C293.334 264.118 294.533 263.623 295.783 263.623H512.408C513.658 263.623 514.857 264.118 515.741 264.997C516.625 265.876 517.121 267.069 517.121 268.313C517.121 269.557 516.625 270.749 515.741 271.629C514.857 272.508 513.658 273.002 512.408 273.002Z" fill="white"/>
<path d="M512.408 301.787H295.783C295.164 301.788 294.55 301.668 293.978 301.433C293.405 301.198 292.885 300.853 292.446 300.418C292.008 299.983 291.66 299.466 291.422 298.897C291.184 298.328 291.061 297.718 291.061 297.102C291.06 296.486 291.182 295.876 291.418 295.306C291.655 294.737 292.002 294.219 292.439 293.783C292.877 293.347 293.397 293.001 293.969 292.765C294.541 292.529 295.154 292.408 295.773 292.408H512.408C513.657 292.41 514.854 292.904 515.737 293.784C516.619 294.663 517.115 295.855 517.115 297.097C517.115 298.34 516.619 299.532 515.737 300.411C514.854 301.29 513.657 301.785 512.408 301.787Z" fill="white"/>
<path d="M321.027 330.57H295.783C294.534 330.569 293.337 330.074 292.454 329.195C291.572 328.315 291.076 327.124 291.076 325.881C291.076 324.638 291.572 323.447 292.454 322.567C293.337 321.688 294.534 321.193 295.783 321.192H321.027C322.276 321.193 323.474 321.688 324.356 322.567C325.239 323.447 325.734 324.638 325.734 325.881C325.734 327.124 325.239 328.315 324.356 329.195C323.474 330.074 322.276 330.569 321.027 330.57Z" fill="white"/>
<path d="M530.235 346.78C531.538 346.276 532.714 345.493 533.681 344.488C534.647 343.483 535.38 342.279 535.829 340.961C536.277 339.643 536.429 338.244 536.275 336.861C536.121 335.478 535.664 334.146 534.936 332.958L558.514 249.521L537.827 247.37L521.155 330.063C519.231 331.411 517.87 333.415 517.331 335.695C516.792 337.975 517.113 340.373 518.232 342.434C519.351 344.494 521.191 346.075 523.403 346.876C525.615 347.677 528.046 347.643 530.235 346.78Z" fill="#EB8F4D"/>
<path d="M562.002 203.718C562.002 203.718 567.052 203.898 564.556 214.256C562.558 222.548 555.219 274.565 549.482 284.936C550.721 286.047 551.554 287.536 551.849 289.169C552.143 290.802 551.884 292.487 551.111 293.957L528.248 284.575C526.349 279.33 527.819 274.567 529.979 274.146L532.65 258.976L536.587 208.085L558.355 203.523L562.002 203.718Z" fill="#E4E4E4"/>
<path d="M437.791 340.006C436.952 338.893 436.368 337.611 436.08 336.25C435.793 334.888 435.809 333.481 436.127 332.126C436.446 330.771 437.059 329.503 437.924 328.409C438.788 327.316 439.883 326.425 441.132 325.798L465.376 242.549L484.087 251.588L454.372 330.576C455.291 332.733 455.384 335.15 454.631 337.369C453.879 339.589 452.335 341.456 450.291 342.619C448.247 343.781 445.846 344.157 443.542 343.676C441.238 343.194 439.192 341.888 437.791 340.006Z" fill="#EB8F4D"/>
<path d="M486.715 201.817C486.715 201.817 482.331 199.318 478.955 209.426C476.253 217.517 454.887 265.55 454.257 277.372C452.615 277.665 451.118 278.492 450.001 279.724C448.884 280.956 448.211 282.523 448.088 284.178L472.483 288.218C476.879 284.76 478.156 279.944 476.546 278.451L482.326 264.164L505.984 218.874L489.917 203.567L486.715 201.817Z" fill="#E4E4E4"/>
<path d="M666.941 503.728L1.05902 504C0.778709 503.999 0.510166 503.888 0.312245 503.69C0.114324 503.493 0.00317383 503.225 0.00317383 502.946C0.00317383 502.668 0.114324 502.4 0.312245 502.203C0.510166 502.005 0.778709 501.894 1.05902 501.893L666.941 501.621C667.222 501.622 667.49 501.733 667.688 501.931C667.886 502.128 667.997 502.396 667.997 502.675C667.997 502.953 667.886 503.221 667.688 503.418C667.49 503.616 667.222 503.727 666.941 503.728Z" fill="#CACACA"/>
<path d="M286.264 456.97C279.454 456.97 272.798 454.961 267.136 451.197C261.474 447.433 257.062 442.083 254.456 435.824C251.85 429.565 251.168 422.678 252.497 416.033C253.825 409.388 257.104 403.285 261.919 398.494C266.734 393.704 272.868 390.441 279.547 389.12C286.225 387.798 293.148 388.476 299.439 391.069C305.73 393.661 311.107 398.052 314.89 403.685C318.673 409.318 320.692 415.941 320.692 422.716C320.682 431.797 317.051 440.504 310.597 446.926C304.142 453.347 295.391 456.96 286.264 456.97ZM286.264 390.231C279.806 390.231 273.494 392.136 268.124 395.706C262.755 399.275 258.57 404.348 256.099 410.284C253.628 416.22 252.981 422.752 254.241 429.053C255.501 435.354 258.611 441.143 263.177 445.686C267.743 450.229 273.561 453.323 279.894 454.576C286.227 455.829 292.792 455.186 298.758 452.727C304.724 450.269 309.823 446.105 313.411 440.763C316.998 435.421 318.913 429.14 318.913 422.716C318.903 414.103 315.46 405.846 309.34 399.756C303.219 393.666 294.92 390.241 286.264 390.231Z" fill="white"/>
<path d="M283.753 436.052C283.681 436.052 283.61 436.05 283.538 436.046C282.906 436.016 282.289 435.85 281.728 435.56C281.166 435.27 280.675 434.862 280.287 434.366L274.682 427.196C274.328 426.744 274.067 426.226 273.914 425.673C273.761 425.121 273.719 424.543 273.791 423.974C273.862 423.405 274.045 422.856 274.33 422.357C274.615 421.859 274.996 421.421 275.451 421.069L275.653 420.913C276.108 420.561 276.628 420.301 277.184 420.149C277.739 419.996 278.32 419.955 278.892 420.026C279.464 420.097 280.016 420.279 280.517 420.563C281.018 420.847 281.458 421.226 281.812 421.679C282.095 422.04 282.453 422.337 282.862 422.548C283.271 422.759 283.721 422.88 284.181 422.902C284.642 422.925 285.101 422.848 285.529 422.677C285.956 422.507 286.342 422.246 286.659 421.913L298.039 409.96C298.841 409.12 299.944 408.631 301.107 408.6C302.27 408.568 303.398 408.997 304.244 409.792L304.43 409.969C304.849 410.363 305.185 410.836 305.42 411.359C305.655 411.883 305.784 412.447 305.799 413.021C305.815 413.594 305.717 414.165 305.51 414.7C305.304 415.235 304.994 415.725 304.598 416.141L286.937 434.688C286.527 435.119 286.034 435.462 285.486 435.697C284.939 435.931 284.349 436.052 283.753 436.052Z" fill="#57CC99"/>
</g>
<defs>
<clipPath id="clip0_23_526">
<rect width="668" height="504" fill="white"/>
</clipPath>
</defs>
</svg>
