<svg width="72" height="72" viewBox="0 0 72 72" fill="none" xmlns="http://www.w3.org/2000/svg">
<rect width="72" height="72" rx="36" fill="#023047"/>
<path d="M6.98499 27.6716C6.98499 22.1817 11.4354 17.7313 16.9253 17.7313H26.0104C31.5166 17.7313 34.2697 17.7313 36.3801 18.7859C38.3173 19.7538 39.8879 21.3244 40.8558 23.2615C41.9104 25.372 41.9104 28.1251 41.9104 33.6313V37.6119H16.9253C11.4354 37.6119 6.98499 33.1615 6.98499 27.6716Z" fill="#FFFCFC" stroke="#FB8500" stroke-width="2"/>
<path d="M33.3134 41.9104H58.8357C62.2484 41.9104 65.0148 44.6769 65.0148 48.0895C65.0148 51.5021 62.2484 54.2686 58.8357 54.2686H45.6716C43.4803 54.2686 42.3846 54.2686 41.4718 54.0976C37.4165 53.3378 34.2442 50.1654 33.4844 46.1102C33.3134 45.1973 33.3134 44.1017 33.3134 41.9104Z" fill="#57CC99"/>
</svg>
