<svg width="72" height="72" viewBox="0 0 72 72" fill="none" xmlns="http://www.w3.org/2000/svg">
<rect x="0.5" y="0.5" width="71" height="71" rx="35.5" fill="#FFFCFC" stroke="#D9D9D9"/>
<path d="M6.98486 27.6716C6.98486 22.1817 11.4353 17.7313 16.9252 17.7313H26.0102C31.5164 17.7313 34.2695 17.7313 36.38 18.7859C38.3172 19.7538 39.8878 21.3244 40.8557 23.2615C41.9102 25.372 41.9102 28.1251 41.9102 33.6313V37.6119H16.9252C11.4353 37.6119 6.98486 33.1615 6.98486 27.6716Z" fill="#FFFCFC" stroke="#FB8500" stroke-width="2"/>
<path d="M33.3132 41.9104H58.8356C62.2482 41.9104 65.0147 44.6769 65.0147 48.0895C65.0147 51.5021 62.2482 54.2686 58.8356 54.2686H45.6714C43.4802 54.2686 42.3845 54.2686 41.4717 54.0976C37.4164 53.3378 34.2441 50.1654 33.4843 46.1102C33.3132 45.1973 33.3132 44.1017 33.3132 41.9104Z" fill="#57CC99"/>
</svg>
