<svg width="61" height="39" viewBox="0 0 61 39" fill="none" xmlns="http://www.w3.org/2000/svg">
<path d="M1.98486 11.6716C1.98486 6.18175 6.43529 1.73132 11.9252 1.73132H21.0102C26.5164 1.73132 29.2695 1.73132 31.38 2.78588C33.3172 3.75381 34.8878 5.3244 35.8557 7.26154C36.9102 9.37203 36.9102 12.1251 36.9102 17.6313V21.6119H11.9252C6.43529 21.6119 1.98486 17.1615 1.98486 11.6716V11.6716Z" fill="#FFFCFC" stroke="#FB8500" stroke-width="2"/>
<path d="M28.3132 25.9104H53.8356C57.2482 25.9104 60.0147 28.6769 60.0147 32.0895V32.0895C60.0147 35.5021 57.2482 38.2686 53.8356 38.2686H40.6714C38.4802 38.2686 37.3845 38.2686 36.4717 38.0976C32.4164 37.3378 29.2441 34.1654 28.4843 30.1102C28.3132 29.1973 28.3132 28.1017 28.3132 25.9104V25.9104Z" fill="#57CC99"/>
</svg>
