<svg width="72" height="72" viewBox="0 0 72 72" fill="none" xmlns="http://www.w3.org/2000/svg">
<circle cx="36" cy="36" r="34.5" fill="#FFFCFC" stroke="#023047" stroke-width="3"/>
<path d="M30.6573 30.608C28.389 30.608 26.1717 29.9732 24.2859 28.784C22.4002 27.5948 20.9307 25.9047 20.0634 23.9274C19.1962 21.9501 18.9701 19.7745 19.4139 17.676C19.8576 15.5774 20.9512 13.6502 22.5563 12.1382C24.1614 10.6262 26.2059 9.59737 28.431 9.18184C30.6561 8.76631 32.9618 8.98278 35.0565 9.80388C37.1511 10.625 38.9405 12.0138 40.1983 13.7946C41.456 15.5753 42.1256 17.6681 42.1222 19.808C42.1133 22.6725 40.9019 25.417 38.7533 27.441C36.6047 29.465 33.6937 30.6037 30.6573 30.608ZM30.6573 12.192C29.0606 12.192 27.4998 12.6386 26.1722 13.4755C24.8446 14.3123 23.8099 15.5018 23.1988 16.8934C22.5878 18.2851 22.4279 19.8164 22.7394 21.2938C23.0509 22.7711 23.8198 24.1282 24.9488 25.1933C26.0779 26.2584 27.5163 26.9838 29.0823 27.2776C30.6483 27.5715 32.2715 27.4207 33.7467 26.8442C35.2218 26.2678 36.4826 25.2916 37.3697 24.0392C38.2568 22.7867 38.7302 21.3143 38.7302 19.808C38.7302 17.7881 37.8797 15.8509 36.3657 14.4226C34.8517 12.9944 32.7984 12.192 30.6573 12.192Z" fill="#57CC99"/>
<path d="M33.6083 57.5999C33.2377 57.2501 32.9517 56.8287 32.7702 56.3647C32.5887 55.9007 32.5159 55.4051 32.5568 54.9119H12.544V45.6639C14.9488 43.2432 17.8656 41.3258 21.1056 40.0359C24.3456 38.746 27.8366 38.1124 31.3526 38.1759H32.5738C32.4959 37.6395 32.5503 37.0933 32.7327 36.58C32.9151 36.0666 33.2205 35.5998 33.6253 35.2159L33.8288 35.0399C33.0317 35.0399 32.1328 34.9439 31.3526 34.9439C27.2151 34.8513 23.1074 35.6272 19.3266 37.2155C15.5458 38.8038 12.1864 41.1649 9.49121 44.1279C9.27103 44.4049 9.15201 44.7418 9.15201 45.0879V54.9119C9.15201 55.7606 9.50938 56.5746 10.1455 57.1747C10.7816 57.7748 11.6444 58.1119 12.544 58.1119H34.0832L33.6083 57.5999Z" fill="#57CC99"/>
<path d="M62.8813 44.224L59.4893 43.248C59.2468 42.4653 58.9171 41.7091 58.5056 40.992L60.2016 38.016C60.2568 37.897 60.2701 37.7644 60.2396 37.6377C60.209 37.511 60.1363 37.3968 60.032 37.312L57.5728 34.992C57.4798 34.897 57.3556 34.8343 57.2203 34.814C57.0849 34.7937 56.9462 34.8169 56.8266 34.88L53.7059 36.48C52.9375 36.0725 52.1243 35.7452 51.2807 35.504L50.2461 32.304C50.2022 32.1862 50.1189 32.0851 50.0088 32.0158C49.8987 31.9465 49.7677 31.9129 49.6355 31.92H46.1587C46.0252 31.9185 45.8948 31.9584 45.7876 32.0336C45.6804 32.1087 45.6022 32.2149 45.5651 32.336L44.5306 35.536C43.6811 35.7691 42.862 36.0911 42.0883 36.496L39.0016 34.896C38.8845 34.8341 38.7487 34.8116 38.6163 34.8319C38.4838 34.8522 38.3626 34.9143 38.2723 35.008L35.7623 37.312C35.6692 37.4045 35.6093 37.5222 35.591 37.6485C35.5728 37.7748 35.5971 37.9034 35.6605 38.016L37.3565 40.928C36.9079 41.6492 36.5494 42.417 36.288 43.216L32.896 44.176C32.7677 44.211 32.6551 44.2847 32.5755 44.3859C32.4958 44.487 32.4535 44.61 32.4551 44.736V48.016C32.4651 48.1316 32.5129 48.2413 32.5919 48.3302C32.6709 48.419 32.7771 48.4826 32.896 48.512L36.288 49.488C36.5387 50.2729 36.8799 51.0294 37.3056 51.744L35.6096 54.8C35.5449 54.9095 35.5198 55.0359 35.5382 55.1601C35.5566 55.2843 35.6174 55.3994 35.7114 55.488L38.1706 57.808C38.2666 57.8984 38.3905 57.9579 38.5245 57.978C38.6585 57.9981 38.7958 57.9778 38.9168 57.92L42.0883 56.32C42.8431 56.7029 43.6391 57.0087 44.4627 57.232L45.4803 60.432C45.5221 60.5504 45.6014 60.6539 45.7076 60.7283C45.8138 60.8027 45.9417 60.8445 46.0739 60.848H49.5507C49.6836 60.8469 49.8127 60.806 49.9194 60.7312C50.0261 60.6565 50.1048 60.5517 50.1443 60.432L51.1789 57.152C51.9916 56.9285 52.7764 56.6227 53.5194 56.24L56.7248 57.84C56.8426 57.8991 56.9778 57.9201 57.1095 57.8999C57.2412 57.8796 57.3622 57.8193 57.4541 57.728L60.032 55.552C60.1013 55.4581 60.1385 55.3464 60.1385 55.232C60.1385 55.1176 60.1013 55.0059 60.032 54.912L58.336 51.904C58.7477 51.1982 59.0775 50.4525 59.3197 49.68L62.7117 48.704C62.84 48.669 62.9526 48.5953 63.0323 48.4941C63.1119 48.393 63.1542 48.27 63.1527 48.144V44.784C63.1682 44.676 63.151 44.566 63.103 44.4669C63.0549 44.3678 62.9781 44.2835 62.8813 44.224ZM47.9056 51.712C46.7838 51.7152 45.6863 51.404 44.7521 50.818C43.818 50.232 43.0893 49.3976 42.6585 48.4205C42.2276 47.4433 42.114 46.3675 42.3321 45.3294C42.5501 44.2912 43.0899 43.3376 43.8832 42.5892C44.6764 41.8409 45.6873 41.3316 46.7877 41.1259C47.8881 40.9202 49.0285 41.0274 50.0643 41.4339C51.1 41.8403 51.9846 42.5278 52.6057 43.409C53.2269 44.2903 53.5567 45.3257 53.5533 46.384C53.5488 47.7958 52.9524 49.1485 51.8942 50.1468C50.836 51.1451 49.4021 51.7078 47.9056 51.712Z" fill="#FB8500"/>
</svg>
