<svg width="72" height="72" viewBox="0 0 72 72" fill="none" xmlns="http://www.w3.org/2000/svg">
<circle cx="36" cy="36" r="34.5" fill="#FFFCFC" stroke="#023047" stroke-width="3"/>
<g clip-path="url(#clip0_262_1296)">
<path d="M29.8441 15.8379C27.3187 15.8379 24.8967 16.9185 23.111 18.842C21.3252 20.7656 20.322 23.3744 20.322 26.0947C20.322 28.815 21.3252 31.4238 23.111 33.3473C24.8967 35.2709 27.3187 36.3515 29.8441 36.3515C32.3695 36.3515 34.7914 35.2709 36.5772 33.3473C38.3629 31.4238 39.3661 28.815 39.3661 26.0947C39.3661 23.3744 38.3629 20.7656 36.5772 18.842C34.7914 16.9185 32.3695 15.8379 29.8441 15.8379ZM25.083 39.7704C23.2062 39.7659 21.347 40.1608 19.6122 40.9324C17.8774 41.7039 16.3012 42.837 14.9741 44.2666C13.6469 45.6961 12.595 47.394 11.8787 49.2626C11.1624 51.1313 10.7958 53.1339 10.8 55.1556V56.8651C10.8 60.284 13.974 60.284 13.974 60.284H45.7141C45.7141 60.284 48.8881 60.284 48.8881 56.8651V55.1556C48.8923 53.1339 48.5257 51.1313 47.8094 49.2626C47.0931 47.394 46.0412 45.6961 44.714 44.2666C43.3869 42.837 41.8107 41.7039 40.0759 40.9324C38.3411 40.1608 36.4819 39.7659 34.6051 39.7704H25.083Z" fill="#57CC99"/>
<path d="M48.9072 12.4292V19.2568H42.5591V26.0844H48.9072V32.9086H55.2552V26.0844H61.6032V19.2568H55.2552V12.4292H48.9072Z" fill="#FB8500"/>
</g>
<defs>
<clipPath id="clip0_262_1296">
<rect width="50.8032" height="54.7029" fill="white" transform="translate(10.8 9)"/>
</clipPath>
</defs>
</svg>
