<svg width="72" height="72" viewBox="0 0 72 72" fill="none" xmlns="http://www.w3.org/2000/svg">
<circle cx="36" cy="36" r="34.5" fill="#FFFCFC" stroke="#023047" stroke-width="3"/>
<path d="M24 51C23.1 51 22.5 50.7 21.9 50.1C20.7 48.9 20.7 47.1 21.9 45.9L45.9 21.9C47.1 20.7 48.9 20.7 50.1 21.9C51.3 23.1 51.3 24.9 50.1 26.1L26.1 50.1C25.5 50.7 24.9 51 24 51Z" fill="#FB8500"/>
<path d="M48 51C47.1 51 46.5 50.7 45.9 50.1L21.9 26.1C20.7 24.9 20.7 23.1 21.9 21.9C23.1 20.7 24.9 20.7 26.1 21.9L50.1 45.9C51.3 47.1 51.3 48.9 50.1 50.1C49.5 50.7 48.9 51 48 51Z" fill="#FB8500"/>
</svg>
