<svg width="73" height="73" viewBox="0 0 73 73" fill="none" xmlns="http://www.w3.org/2000/svg">
<circle cx="36.5" cy="36.5" r="36" fill="#FFFCFC" stroke="#CACCCD"/>
<path d="M27.3333 36.6192C31.9051 36.6192 35.3541 33.1702 35.3541 28.5983C35.3541 24.0265 31.9051 20.5775 27.3333 20.5775C22.7614 20.5775 19.3124 24.0265 19.3124 28.5983C19.3124 33.1702 22.7614 36.6192 27.3333 36.6192ZM29.6249 38.7917H25.0416C18.7235 38.7917 13.5833 43.9319 13.5833 50.25V52.5417H41.0833V50.25C41.0833 43.9319 35.943 38.7917 29.6249 38.7917ZM55.5047 28.0048L50.2499 33.2596L44.9951 28.0048L41.7547 31.2452L47.0072 36.4977L41.7524 41.7525L44.9928 44.9929L50.2476 39.7381L55.5047 44.9952L58.7451 41.7548L53.4903 36.5L58.7451 31.2452L55.5047 28.0048Z" fill="#FB8500"/>
</svg>
