<svg width="72" height="72" viewBox="0 0 72 72" fill="none" xmlns="http://www.w3.org/2000/svg">
<circle cx="36" cy="36" r="34.5" fill="#FFFCFC" stroke="#023047" stroke-width="3"/>
<path d="M33 48C32.1 48 31.5 47.7 30.9 47.1L21.9 38.1C20.7 36.9 20.7 35.1 21.9 33.9C23.1 32.7 24.9 32.7 26.1 33.9L35.1 42.9C36.3 44.1 36.3 45.9 35.1 47.1C34.5 47.7 33.9 48 33 48Z" fill="#57CC99"/>
<path d="M33 48C32.1 48 31.5 47.7 30.9 47.1C29.7 45.9 29.7 44.1 30.9 42.9L48.9 24.9C50.1 23.7 51.9 23.7 53.1 24.9C54.3 26.1 54.3 27.9 53.1 29.1L35.1 47.1C34.5 47.7 33.9 48 33 48Z" fill="#57CC99"/>
</svg>
