<svg width="72" height="72" viewBox="0 0 72 72" fill="none" xmlns="http://www.w3.org/2000/svg">
<circle cx="36" cy="36" r="34.5" fill="#FFFCFC" stroke="#023047" stroke-width="3"/>
<path d="M36 36.0001C38.3674 36.0001 40.6817 35.298 42.6502 33.9828C44.6186 32.6675 46.1529 30.798 47.0588 28.6108C47.9648 26.4236 48.2019 24.0168 47.74 21.6948C47.2781 19.3729 46.1381 17.24 44.4641 15.566C42.79 13.892 40.6572 12.7519 38.3352 12.2901C36.0133 11.8282 33.6065 12.0652 31.4193 12.9712C29.232 13.8772 27.3626 15.4114 26.0473 17.3799C24.732 19.3483 24.03 21.6626 24.03 24.0301C24.03 27.2047 25.2911 30.2493 27.5359 32.4941C29.7807 34.7389 32.8254 36.0001 36 36.0001ZM36 15.4801C37.691 15.4801 39.3441 15.9815 40.7501 16.921C42.1562 17.8605 43.252 19.1958 43.8992 20.7581C44.5463 22.3204 44.7156 24.0395 44.3857 25.6981C44.0558 27.3566 43.2415 28.8801 42.0458 30.0758C40.85 31.2716 39.3266 32.0859 37.668 32.4158C36.0095 32.7457 34.2904 32.5764 32.7281 31.9292C31.1657 31.2821 29.8304 30.1862 28.8909 28.7802C27.9514 27.3741 27.45 25.7211 27.45 24.0301C27.45 21.7625 28.3508 19.5877 29.9542 17.9843C31.5577 16.3809 33.7324 15.4801 36 15.4801Z" fill="#57CC99"/>
<path d="M37.71 39.42H34.29C29.3013 39.42 24.5169 41.4018 20.9893 44.9294C17.4618 48.4569 15.48 53.2413 15.48 58.23C15.48 58.6836 15.6602 59.1185 15.9809 59.4392C16.3015 59.7599 16.7365 59.94 17.19 59.94H54.81C55.2635 59.94 55.6985 59.7599 56.0192 59.4392C56.3399 59.1185 56.52 58.6836 56.52 58.23C56.52 53.2413 54.5382 48.4569 51.0107 44.9294C47.4831 41.4018 42.6987 39.42 37.71 39.42ZM19.0026 56.52C19.4231 52.7591 21.2145 49.285 24.0346 46.7615C26.8547 44.2379 30.5057 42.8418 34.29 42.84H37.71C41.4943 42.8418 45.1454 44.2379 47.9654 46.7615C50.7855 49.285 52.5769 52.7591 52.9974 56.52H19.0026Z" fill="#57CC99"/>
</svg>
