<svg width="49" height="49" viewBox="0 0 49 49" fill="none" xmlns="http://www.w3.org/2000/svg">
<circle cx="24.5" cy="24.5" r="24" fill="#FFFCFC" stroke="#CACACA"/>
<path d="M20.8638 20.8304C19.3201 20.8304 17.8111 20.3984 16.5278 19.5891C15.2444 18.7798 14.2443 17.6296 13.6541 16.2839C13.0639 14.9382 12.9101 13.4577 13.2121 12.0295C13.5141 10.6013 14.2583 9.28975 15.3507 8.26075C16.443 7.23175 17.8344 6.53155 19.3487 6.24876C20.863 5.96597 22.4322 6.11329 23.8577 6.67209C25.2833 7.23089 26.501 8.17605 27.357 9.38797C28.213 10.5999 28.6686 12.0241 28.6664 13.4804C28.6603 15.4299 27.8359 17.2977 26.3736 18.6751C24.9113 20.0526 22.9302 20.8276 20.8638 20.8304ZM20.8638 8.29731C19.7772 8.29731 18.715 8.6013 17.8115 9.17082C16.908 9.74035 16.2038 10.5498 15.7879 11.4969C15.3721 12.444 15.2633 13.4862 15.4753 14.4916C15.6873 15.497 16.2105 16.4206 16.9789 17.1454C17.7473 17.8703 18.7262 18.364 19.792 18.5639C20.8577 18.7639 21.9624 18.6613 22.9663 18.269C23.9702 17.8767 24.8283 17.2124 25.432 16.36C26.0357 15.5076 26.3579 14.5055 26.3579 13.4804C26.3579 12.1058 25.7791 10.7874 24.7487 9.81541C23.7184 8.84339 22.3209 8.29731 20.8638 8.29731Z" fill="#57CC99"/>
<path d="M22.8722 39.2C22.6199 38.9619 22.4253 38.6751 22.3018 38.3593C22.1782 38.0435 22.1287 37.7062 22.1565 37.3706H8.53672V31.0769C10.1733 29.4294 12.1583 28.1245 14.3633 27.2467C16.5683 26.3688 18.9442 25.9376 21.337 25.9809H22.1681C22.1151 25.6158 22.1521 25.2441 22.2762 24.8947C22.4003 24.5453 22.6082 24.2276 22.8837 23.9664L23.0222 23.8466C22.4797 23.8466 21.868 23.7813 21.337 23.7813C18.5212 23.7182 15.7257 24.2463 13.1526 25.3272C10.5796 26.4081 8.29332 28.015 6.45912 30.0315C6.30927 30.22 6.22827 30.4493 6.22827 30.6849V37.3706C6.22827 37.9482 6.47148 38.5021 6.9044 38.9106C7.33732 39.319 7.92448 39.5484 8.53672 39.5484H23.1953L22.8722 39.2Z" fill="#57CC99"/>
<path d="M42.7942 30.0968L40.4857 29.4326C40.3207 28.9 40.0963 28.3853 39.8163 27.8973L40.9705 25.872C41.0081 25.7909 41.0171 25.7007 40.9963 25.6145C40.9756 25.5283 40.9261 25.4506 40.8551 25.3928L39.1815 23.814C39.1182 23.7493 39.0337 23.7066 38.9415 23.6928C38.8494 23.679 38.755 23.6948 38.6736 23.7377L36.5498 24.8266C36.0269 24.5493 35.4734 24.3266 34.8993 24.1624L34.1952 21.9846C34.1653 21.9045 34.1087 21.8356 34.0337 21.7885C33.9588 21.7414 33.8696 21.7185 33.7797 21.7233H31.4135C31.3227 21.7223 31.2339 21.7494 31.161 21.8006C31.088 21.8517 31.0348 21.924 31.0096 22.0064L30.3055 24.1842C29.7274 24.3428 29.1699 24.562 28.6434 24.8375L26.5427 23.7486C26.463 23.7065 26.3706 23.6912 26.2805 23.705C26.1903 23.7188 26.1078 23.7611 26.0464 23.8248L24.3382 25.3928C24.2748 25.4558 24.2341 25.5359 24.2216 25.6219C24.2092 25.7078 24.2257 25.7953 24.2689 25.872L25.4231 27.8537C25.1178 28.3445 24.8738 28.8671 24.696 29.4108L22.3875 30.0642C22.3002 30.088 22.2236 30.1382 22.1694 30.207C22.1152 30.2758 22.0864 30.3595 22.0874 30.4453V32.6775C22.0943 32.7562 22.1268 32.8309 22.1805 32.8913C22.2343 32.9518 22.3066 32.995 22.3875 33.0151L24.696 33.6793C24.8666 34.2134 25.0988 34.7283 25.3885 35.2146L24.2343 37.2944C24.1902 37.3689 24.1732 37.455 24.1857 37.5395C24.1982 37.624 24.2396 37.7023 24.3035 37.7626L25.9772 39.3415C26.0425 39.403 26.1268 39.4435 26.218 39.4572C26.3092 39.4709 26.4026 39.4571 26.485 39.4177L28.6434 38.3288C29.1571 38.5895 29.6988 38.7975 30.2593 38.9495L30.9519 41.1273C30.9803 41.2079 31.0343 41.2783 31.1065 41.3289C31.1788 41.3796 31.2658 41.408 31.3558 41.4104H33.722C33.8124 41.4096 33.9003 41.3818 33.9729 41.3309C34.0455 41.2801 34.0991 41.2087 34.126 41.1273L34.83 38.8951C35.3832 38.743 35.9172 38.5349 36.4229 38.2744L38.6043 39.3633C38.6845 39.4035 38.7765 39.4178 38.8661 39.404C38.9557 39.3903 39.0381 39.3492 39.1007 39.2871L40.8551 37.8062C40.9023 37.7423 40.9275 37.6663 40.9275 37.5884C40.9275 37.5105 40.9023 37.4345 40.8551 37.3706L39.7009 35.3235C39.9811 34.8432 40.2055 34.3357 40.3703 33.81L42.6788 33.1457C42.7661 33.1219 42.8427 33.0717 42.8969 33.0029C42.9511 32.9341 42.9799 32.8504 42.9789 32.7646V30.478C42.9894 30.4045 42.9777 30.3296 42.945 30.2622C42.9123 30.1947 42.86 30.1374 42.7942 30.0968ZM32.6024 35.1928C31.8389 35.195 31.092 34.9833 30.4563 34.5845C29.8205 34.1857 29.3246 33.6178 29.0314 32.9528C28.7382 32.2878 28.6609 31.5556 28.8093 30.8491C28.9577 30.1426 29.3251 29.4936 29.8649 28.9843C30.4047 28.475 31.0927 28.1284 31.8416 27.9884C32.5905 27.8484 33.3666 27.9214 34.0715 28.198C34.7764 28.4746 35.3783 28.9425 35.8011 29.5422C36.2238 30.142 36.4482 30.8466 36.446 31.5668C36.4429 32.5276 36.037 33.4483 35.3168 34.1276C34.5967 34.807 33.6208 35.19 32.6024 35.1928Z" fill="#FB8500"/>
</svg>
