<svg width="56" height="56" viewBox="0 0 56 56" fill="none" xmlns="http://www.w3.org/2000/svg">
<g filter="url(#filter0_i_263_1596)">
<circle cx="28" cy="28" r="27.5" fill="#FFFCFC" stroke="#E4E4E4"/>
<g clip-path="url(#clip0_263_1596)">
<path d="M40.32 27.965V40.5276C40.319 41.0575 40.1079 41.5654 39.733 41.9399C39.358 42.3143 38.8499 42.5248 38.3199 42.525H13.2C12.67 42.5248 12.1619 42.3143 11.7869 41.9399C11.412 41.5654 11.2009 41.0575 11.2 40.5276V15.4025C11.2009 14.8726 11.412 14.3647 11.7869 13.9902C12.1619 13.6158 12.67 13.4053 13.2 13.405H30.24C30.537 13.405 30.8219 13.523 31.0319 13.7331C31.242 13.9431 31.36 14.228 31.36 14.525C31.36 14.8221 31.242 15.107 31.0319 15.317C30.8219 15.527 30.537 15.645 30.24 15.645H13.44V40.285H38.08V27.965C38.08 27.668 38.198 27.3831 38.408 27.1731C38.618 26.963 38.9029 26.845 39.2 26.845C39.497 26.845 39.7819 26.963 39.9919 27.1731C40.202 27.3831 40.32 27.668 40.32 27.965ZM17.92 31.885V37.485C17.92 37.6336 17.979 37.776 18.084 37.881C18.189 37.986 18.3314 38.045 18.48 38.045H24.08C24.1907 38.045 24.299 38.0122 24.391 37.9507C24.4831 37.8891 24.5549 37.8017 24.5973 37.6993C24.6397 37.597 24.6507 37.4844 24.6291 37.3758C24.6075 37.2672 24.5542 37.1674 24.4759 37.0891L18.8759 31.4891C18.7976 31.4108 18.6978 31.3575 18.5892 31.3359C18.4806 31.3143 18.368 31.3253 18.2657 31.3677C18.1633 31.4101 18.0759 31.4819 18.0143 31.574C17.9528 31.666 17.92 31.7743 17.92 31.885ZM34.5573 15.8078C34.4523 15.7027 34.3098 15.6437 34.1613 15.6437C34.0128 15.6437 33.8703 15.7027 33.7653 15.8078L20.3253 29.2491C20.2733 29.3011 20.2321 29.3628 20.2039 29.4307C20.1758 29.4987 20.1613 29.5715 20.1613 29.645C20.1613 29.7186 20.1758 29.7914 20.2039 29.8593C20.2321 29.9273 20.2733 29.989 20.3253 30.041L25.9253 35.641C25.9773 35.693 26.0391 35.7343 26.107 35.7624C26.1749 35.7905 26.2478 35.805 26.3213 35.805C26.3948 35.805 26.4677 35.7905 26.5356 35.7624C26.6035 35.7343 26.6653 35.693 26.7173 35.641L40.1573 22.1997C40.2093 22.1477 40.2505 22.086 40.2787 22.018C40.3068 21.9501 40.3213 21.8773 40.3213 21.8037C40.3213 21.7302 40.3068 21.6574 40.2787 21.5894C40.2505 21.5215 40.2093 21.4598 40.1573 21.4078L34.5573 15.8078ZM43.9812 14.416L41.549 11.9838C41.0235 11.4595 40.3115 11.165 39.5691 11.165C38.8268 11.165 38.1147 11.4595 37.5892 11.9838L36.0053 13.5678C35.9533 13.6198 35.9121 13.6815 35.8839 13.7494C35.8558 13.8174 35.8413 13.8902 35.8413 13.9637C35.8413 14.0373 35.8558 14.1101 35.8839 14.178C35.9121 14.246 35.9533 14.3077 36.0053 14.3597L41.6053 19.9597C41.6573 20.0117 41.7191 20.053 41.787 20.0811C41.8549 20.1092 41.9278 20.1237 42.0013 20.1237C42.0748 20.1237 42.1477 20.1092 42.2156 20.0811C42.2835 20.053 42.3453 20.0117 42.3973 19.9597L43.9812 18.3758C44.5055 17.8503 44.7999 17.1382 44.7999 16.3959C44.7999 15.6535 44.5055 14.9415 43.9812 14.416Z" fill="#57CC99"/>
</g>
</g>
<defs>
<filter id="filter0_i_263_1596" x="0" y="0" width="56" height="60" filterUnits="userSpaceOnUse" color-interpolation-filters="sRGB">
<feFlood flood-opacity="0" result="BackgroundImageFix"/>
<feBlend mode="normal" in="SourceGraphic" in2="BackgroundImageFix" result="shape"/>
<feColorMatrix in="SourceAlpha" type="matrix" values="0 0 0 0 0 0 0 0 0 0 0 0 0 0 0 0 0 0 127 0" result="hardAlpha"/>
<feOffset dy="4"/>
<feGaussianBlur stdDeviation="2"/>
<feComposite in2="hardAlpha" operator="arithmetic" k2="-1" k3="1"/>
<feColorMatrix type="matrix" values="0 0 0 0 0 0 0 0 0 0 0 0 0 0 0 0 0 0 0.25 0"/>
<feBlend mode="normal" in2="shape" result="effect1_innerShadow_263_1596"/>
</filter>
<clipPath id="clip0_263_1596">
<rect width="35.84" height="35.84" fill="white" transform="translate(8.95996 8.96002)"/>
</clipPath>
</defs>
</svg>
