<svg width="51" height="51" viewBox="0 0 51 51" fill="none" xmlns="http://www.w3.org/2000/svg">
<circle cx="25.5" cy="25.5" r="25" fill="#FFFCFC" stroke="#CACACA"/>
<path d="M25.5 25.5C27.1112 25.5 28.6862 25.0223 30.0258 24.1271C31.3655 23.232 32.4096 21.9597 33.0262 20.4712C33.6427 18.9827 33.8041 17.3447 33.4897 15.7645C33.1754 14.1843 32.3996 12.7328 31.2603 11.5935C30.121 10.4542 28.6695 9.67838 27.0893 9.36405C25.509 9.04973 23.8711 9.21105 22.3826 9.82762C20.894 10.4442 19.6218 11.4883 18.7267 12.828C17.8315 14.1676 17.3538 15.7426 17.3538 17.3538C17.3538 19.5143 18.212 21.5863 19.7397 23.114C21.2675 24.6418 23.3395 25.5 25.5 25.5ZM25.5 11.535C26.6509 11.535 27.7758 11.8763 28.7327 12.5157C29.6896 13.155 30.4354 14.0638 30.8758 15.127C31.3162 16.1903 31.4315 17.3602 31.207 18.489C30.9824 19.6177 30.4283 20.6545 29.6145 21.4683C28.8007 22.282 27.7639 22.8362 26.6352 23.0607C25.5065 23.2852 24.3365 23.17 23.2733 22.7296C22.21 22.2892 21.3013 21.5434 20.6619 20.5865C20.0225 19.6296 19.6813 18.5046 19.6813 17.3538C19.6813 15.8105 20.2943 14.3305 21.3855 13.2393C22.4768 12.1481 23.9568 11.535 25.5 11.535Z" fill="#57CC99"/>
<path d="M26.6637 27.8275H24.3362C20.9411 27.8275 17.685 29.1762 15.2843 31.5769C12.8836 33.9776 11.5349 37.2337 11.5349 40.6288C11.5349 40.9374 11.6575 41.2334 11.8758 41.4517C12.094 41.6699 12.39 41.7925 12.6987 41.7925H38.3012C38.6098 41.7925 38.9058 41.6699 39.1241 41.4517C39.3423 41.2334 39.4649 40.9374 39.4649 40.6288C39.4649 37.2337 38.1162 33.9776 35.7155 31.5769C33.3148 29.1762 30.0588 27.8275 26.6637 27.8275ZM13.9322 39.465C14.2184 36.9055 15.4376 34.5412 17.3568 32.8238C19.276 31.1063 21.7607 30.1562 24.3362 30.155H26.6637C29.2391 30.1562 31.7238 31.1063 33.643 32.8238C35.5623 34.5412 36.7814 36.9055 37.0676 39.465H13.9322Z" fill="#57CC99"/>
</svg>
