<svg width="51" height="51" viewBox="0 0 51 51" fill="none" xmlns="http://www.w3.org/2000/svg">
<circle cx="25.5" cy="25.5" r="25" fill="#FFFCFC" stroke="#CACACA"/>
<path d="M17.3334 35.7083C16.7209 35.7083 16.3126 35.5041 15.9042 35.0958C15.0876 34.2791 15.0876 33.0541 15.9042 32.2375L32.2376 15.9041C33.0542 15.0875 34.2793 15.0875 35.0959 15.9041C35.9126 16.7208 35.9126 17.9458 35.0959 18.7625L18.7626 35.0958C18.3542 35.5041 17.9459 35.7083 17.3334 35.7083Z" fill="#FB8500"/>
<path d="M33.6667 35.7083C33.0542 35.7083 32.6459 35.5041 32.2376 35.0958L15.9042 18.7625C15.0876 17.9458 15.0876 16.7208 15.9042 15.9041C16.7209 15.0875 17.9459 15.0875 18.7626 15.9041L35.0959 32.2375C35.9126 33.0541 35.9126 34.2791 35.0959 35.0958C34.6876 35.5041 34.2792 35.7083 33.6667 35.7083Z" fill="#FB8500"/>
</svg>
