<svg width="51" height="51" viewBox="0 0 51 51" fill="none" xmlns="http://www.w3.org/2000/svg">
<circle cx="25.5" cy="25.5" r="25" fill="#FFFCFC" stroke="#CACACA"/>
<path d="M23.4584 33.6667C22.8459 33.6667 22.4376 33.4625 22.0292 33.0542L15.9042 26.9292C15.0876 26.1125 15.0876 24.8875 15.9042 24.0709C16.7209 23.2542 17.9459 23.2542 18.7626 24.0709L24.8876 30.1959C25.7042 31.0125 25.7042 32.2375 24.8876 33.0542C24.4792 33.4625 24.0709 33.6667 23.4584 33.6667Z" fill="#57CC99"/>
<path d="M23.4584 33.6667C22.8459 33.6667 22.4376 33.4625 22.0292 33.0542C21.2126 32.2375 21.2126 31.0125 22.0292 30.1959L34.2792 17.9459C35.0959 17.1292 36.3209 17.1292 37.1376 17.9459C37.9543 18.7625 37.9543 19.9875 37.1376 20.8042L24.8876 33.0542C24.4792 33.4625 24.0709 33.6667 23.4584 33.6667Z" fill="#57CC99"/>
</svg>
