<svg width="56" height="56" viewBox="0 0 56 56" fill="none" xmlns="http://www.w3.org/2000/svg">
<g filter="url(#filter0_i_346_1105)">
<circle cx="28" cy="28" r="28" fill="#FFFCFC"/>
</g>
<circle cx="28" cy="28" r="27" stroke="#57CC99" stroke-width="2"/>
<path d="M37.5 39V16.5H39.5V39C39.5 44.8039 34.8039 49.5 29 49.5C23.1961 49.5 18.5 44.8039 18.5 39V14C18.5 9.85614 21.8561 6.5 26 6.5C30.1439 6.5 33.5 9.85614 33.5 14V35C33.5 37.4839 31.4839 39.5 29 39.5C26.5161 39.5 24.5 37.4839 24.5 35V16.5H26.5V35C26.5 36.3761 27.6239 37.5 29 37.5C30.3761 37.5 31.5 36.3761 31.5 35V14C31.5 10.9639 29.0361 8.5 26 8.5C22.9639 8.5 20.5 10.9639 20.5 14V39C20.5 43.6961 24.3039 47.5 29 47.5C33.6961 47.5 37.5 43.6961 37.5 39Z" fill="#023047" stroke="#023047"/>
<defs>
<filter id="filter0_i_346_1105" x="0" y="0" width="56" height="60" filterUnits="userSpaceOnUse" color-interpolation-filters="sRGB">
<feFlood flood-opacity="0" result="BackgroundImageFix"/>
<feBlend mode="normal" in="SourceGraphic" in2="BackgroundImageFix" result="shape"/>
<feColorMatrix in="SourceAlpha" type="matrix" values="0 0 0 0 0 0 0 0 0 0 0 0 0 0 0 0 0 0 127 0" result="hardAlpha"/>
<feOffset dy="4"/>
<feGaussianBlur stdDeviation="2"/>
<feComposite in2="hardAlpha" operator="arithmetic" k2="-1" k3="1"/>
<feColorMatrix type="matrix" values="0 0 0 0 0 0 0 0 0 0 0 0 0 0 0 0 0 0 0.25 0"/>
<feBlend mode="normal" in2="shape" result="effect1_innerShadow_346_1105"/>
</filter>
</defs>
</svg>
