<svg width="72" height="72" viewBox="0 0 72 72" fill="none" xmlns="http://www.w3.org/2000/svg">
<circle cx="36" cy="36" r="35" fill="#FFFCFC" stroke="#E4E4E4" stroke-width="2"/>
<g clip-path="url(#clip0_262_1289)">
<path d="M51.84 35.955V52.1068C51.8388 52.7881 51.5674 53.4411 51.0853 53.9226C50.6033 54.4041 49.9499 54.6747 49.2686 54.675H16.9714C16.2901 54.6747 15.6367 54.4041 15.1547 53.9226C14.6726 53.4411 14.4012 52.7881 14.4 52.1068V19.8031C14.4012 19.1218 14.6726 18.4688 15.1547 17.9874C15.6368 17.5059 16.2901 17.2353 16.9714 17.235H38.88C39.2619 17.235 39.6282 17.3867 39.8982 17.6568C40.1683 17.9268 40.32 18.2931 40.32 18.675C40.32 19.0569 40.1683 19.4232 39.8982 19.6932C39.6282 19.9633 39.2619 20.115 38.88 20.115H17.28V51.795H48.96V35.955C48.96 35.5731 49.1117 35.2068 49.3818 34.9368C49.6518 34.6667 50.0181 34.515 50.4 34.515C50.7819 34.515 51.1482 34.6667 51.4182 34.9368C51.6883 35.2068 51.84 35.5731 51.84 35.955ZM23.04 40.995V48.195C23.04 48.3859 23.1159 48.5691 23.2509 48.7041C23.3859 48.8391 23.5691 48.915 23.76 48.915H30.96C31.1024 48.915 31.2416 48.8727 31.36 48.7936C31.4784 48.7145 31.5707 48.6021 31.6251 48.4705C31.6796 48.339 31.6939 48.1942 31.6661 48.0545C31.6383 47.9149 31.5698 47.7866 31.4691 47.6859L24.2691 40.4859C24.1684 40.3852 24.0401 40.3167 23.9005 40.2889C23.7608 40.2611 23.616 40.2754 23.4845 40.3299C23.3529 40.3843 23.2405 40.4766 23.1614 40.595C23.0823 40.7134 23.04 40.8526 23.04 40.995ZM44.4308 20.3242C44.2958 20.1892 44.1127 20.1133 43.9217 20.1133C43.7308 20.1133 43.5477 20.1892 43.4126 20.3242L26.1326 37.6059C26.0658 37.6727 26.0127 37.7521 25.9765 37.8394C25.9403 37.9268 25.9217 38.0204 25.9217 38.115C25.9217 38.2095 25.9403 38.3031 25.9765 38.3905C26.0127 38.4779 26.0658 38.5572 26.1326 38.6241L33.3326 45.8241C33.3995 45.8909 33.4789 45.944 33.5662 45.9802C33.6536 46.0163 33.7472 46.035 33.8417 46.035C33.9363 46.035 34.0299 46.0163 34.1173 45.9802C34.2046 45.944 34.284 45.8909 34.3508 45.8241L51.6309 28.5424C51.6977 28.4756 51.7508 28.3962 51.7869 28.3088C51.8231 28.2215 51.8418 28.1279 51.8418 28.0333C51.8418 27.9388 51.8231 27.8451 51.7869 27.7578C51.7508 27.6704 51.6977 27.591 51.6309 27.5242L44.4308 20.3242ZM56.5473 18.5348L53.4202 15.4077C52.7446 14.7336 51.8291 14.355 50.8746 14.355C49.9202 14.355 49.0047 14.7336 48.3291 15.4077L46.2926 17.4442C46.2258 17.511 46.1727 17.5904 46.1366 17.6778C46.1004 17.7651 46.0817 17.8588 46.0817 17.9533C46.0817 18.0479 46.1004 18.1415 46.1366 18.2288C46.1727 18.3162 46.2258 18.3956 46.2926 18.4624L53.4926 25.6624C53.5595 25.7293 53.6389 25.7823 53.7262 25.8185C53.8136 25.8547 53.9072 25.8733 54.0017 25.8733C54.0963 25.8733 54.1899 25.8547 54.2773 25.8185C54.3646 25.7823 54.444 25.7293 54.5108 25.6624L56.5473 23.6259C57.2214 22.9503 57.6 22.0348 57.6 21.0804C57.6 20.1259 57.2214 19.2104 56.5473 18.5348Z" fill="#57CC99"/>
</g>
<defs>
<clipPath id="clip0_262_1289">
<rect width="46.08" height="46.08" fill="white" transform="translate(11.52 11.52)"/>
</clipPath>
</defs>
</svg>
