<svg width="72" height="72" viewBox="0 0 72 72" fill="none" xmlns="http://www.w3.org/2000/svg">
<g clip-path="url(#clip0_271_3223)">
<path d="M36 0C28.8799 0 21.9197 2.11136 15.9995 6.06709C10.0793 10.0228 5.46511 15.6453 2.74035 22.2234C0.0155983 28.8015 -0.697322 36.0399 0.691746 43.0233C2.08081 50.0066 5.50948 56.4212 10.5442 61.4558C15.5789 66.4905 21.9935 69.9192 28.9768 71.3083C35.9601 72.6973 43.1985 71.9844 49.7766 69.2597C56.3548 66.5349 61.9772 61.9207 65.9329 56.0005C69.8886 50.0804 72 43.1201 72 36C71.9897 26.4554 68.1935 17.3046 61.4445 10.5556C54.6954 3.80648 45.5446 0.0103232 36 0ZM36 66C30.0666 66 24.2664 64.2405 19.3329 60.9441C14.3994 57.6476 10.5543 52.9623 8.28363 47.4805C6.013 41.9987 5.4189 35.9667 6.57646 30.1473C7.73401 24.3279 10.5912 18.9824 14.7868 14.7868C18.9824 10.5912 24.3279 7.734 30.1473 6.57644C35.9667 5.41889 41.9987 6.01299 47.4805 8.28362C52.9623 10.5542 57.6477 14.3994 60.9441 19.3329C64.2405 24.2664 66 30.0666 66 36C65.9913 43.9538 62.8278 51.5794 57.2036 57.2036C51.5794 62.8278 43.9538 65.9913 36 66Z" fill="#FB8500"/>
<path d="M31.923 18.696C31.312 18.186 30.5233 17.9396 29.7306 18.011C28.9379 18.0825 28.206 18.4659 27.696 19.077C27.186 19.688 26.9396 20.4767 27.0111 21.2694C27.0825 22.0621 27.466 22.794 28.077 23.304L43.311 36L28.077 48.696C27.466 49.206 27.0825 49.9378 27.0111 50.7306C26.9396 51.5233 27.186 52.3119 27.696 52.923C28.206 53.534 28.9379 53.9175 29.7306 53.9889C30.5233 54.0604 31.312 53.814 31.923 53.304L49.923 38.304C50.2607 38.0224 50.5323 37.6701 50.7187 37.272C50.9051 36.8738 51.0017 36.4396 51.0017 36C51.0017 35.5604 50.9051 35.1261 50.7187 34.728C50.5323 34.3298 50.2607 33.9775 49.923 33.696L31.923 18.696Z" fill="#FB8500"/>
</g>
<defs>
<clipPath id="clip0_271_3223">
<rect width="72" height="72" fill="white"/>
</clipPath>
</defs>
</svg>
