<svg width="72" height="72" viewBox="0 0 72 72" fill="none" xmlns="http://www.w3.org/2000/svg">
<g clip-path="url(#clip0_271_3220)">
<path d="M36 0C28.8799 0 21.9197 2.11136 15.9995 6.06709C10.0793 10.0228 5.46511 15.6453 2.74035 22.2234C0.0155983 28.8015 -0.697322 36.0399 0.691746 43.0233C2.08081 50.0066 5.50948 56.4212 10.5442 61.4558C15.5789 66.4905 21.9935 69.9192 28.9768 71.3083C35.9601 72.6973 43.1985 71.9844 49.7766 69.2597C56.3548 66.5349 61.9772 61.9207 65.9329 56.0005C69.8886 50.0804 72 43.1201 72 36C71.9921 26.4546 68.1967 17.3025 61.4471 10.5529C54.6975 3.80334 45.5454 0.00794454 36 0ZM49.923 38.304L31.923 53.304C31.6205 53.5565 31.2711 53.747 30.8949 53.8645C30.5188 53.982 30.1231 54.0243 29.7306 53.9889C29.3381 53.9536 28.9564 53.8412 28.6073 53.6583C28.2582 53.4754 27.9485 53.2256 27.696 52.923C27.4435 52.6204 27.253 52.2711 27.1355 51.8949C27.018 51.5187 26.9757 51.1231 27.0111 50.7306C27.0465 50.3381 27.1588 49.9564 27.3417 49.6073C27.5246 49.2582 27.7745 48.9485 28.077 48.696L43.311 36L28.077 23.304C27.7745 23.0515 27.5246 22.7418 27.3417 22.3927C27.1588 22.0436 27.0465 21.6619 27.0111 21.2694C26.9757 20.8769 27.018 20.4813 27.1355 20.1051C27.253 19.7289 27.4435 19.3796 27.696 19.077C27.9485 18.7744 28.2582 18.5246 28.6073 18.3417C28.9564 18.1588 29.3381 18.0464 29.7306 18.0111C30.1231 17.9757 30.5188 18.018 30.8949 18.1355C31.2711 18.253 31.6205 18.4435 31.923 18.696L49.923 33.696C50.2606 33.9776 50.5323 34.3299 50.7187 34.728C50.9051 35.1261 51.0017 35.5604 51.0017 36C51.0017 36.4396 50.9051 36.8739 50.7187 37.272C50.5323 37.6701 50.2606 38.0225 49.923 38.304Z" fill="#FB8500"/>
</g>
<defs>
<clipPath id="clip0_271_3220">
<rect width="72" height="72" fill="white"/>
</clipPath>
</defs>
</svg>
