<svg width="72" height="72" viewBox="0 0 72 72" fill="none" xmlns="http://www.w3.org/2000/svg">
<path d="M67.5 65.1797C67.5 65.7764 67.2629 66.3487 66.841 66.7707C66.419 67.1926 65.8467 67.4297 65.25 67.4297H6.75C6.15326 67.4297 5.58097 67.1926 5.15901 66.7707C4.73705 66.3487 4.5 65.7764 4.5 65.1797C4.5 64.583 4.73705 64.0107 5.15901 63.5887C5.58097 63.1668 6.15326 62.9297 6.75 62.9297H65.25C65.8467 62.9297 66.419 63.1668 66.841 63.5887C67.2629 64.0107 67.5 64.583 67.5 65.1797ZM12.375 58.4297H23.625C23.8475 58.4297 24.065 58.3637 24.25 58.2401C24.435 58.1165 24.5791 57.9408 24.6643 57.7352C24.7494 57.5297 24.7717 57.3035 24.7283 57.0853C24.6849 56.867 24.5778 56.6666 24.4204 56.5093L13.1704 45.2593C13.0131 45.1019 12.8127 44.9948 12.5944 44.9514C12.3762 44.908 12.15 44.9303 11.9445 45.0154C11.7389 45.1006 11.5632 45.2448 11.4396 45.4297C11.316 45.6147 11.25 45.8322 11.25 46.0547V57.3047C11.25 57.6031 11.3685 57.8892 11.5795 58.1002C11.7905 58.3112 12.0766 58.4297 12.375 58.4297ZM27.3296 53.6001C27.434 53.7046 27.558 53.7875 27.6945 53.844C27.831 53.9006 27.9773 53.9297 28.125 53.9297C28.2728 53.9297 28.4191 53.9006 28.5555 53.844C28.692 53.7875 28.8161 53.7046 28.9205 53.6001L55.9232 26.5975C56.0277 26.4931 56.1105 26.3691 56.1671 26.2326C56.2236 26.0961 56.2527 25.9498 56.2527 25.8021C56.2527 25.6543 56.2236 25.508 56.1671 25.3715C56.1105 25.2351 56.0277 25.111 55.9232 25.0066L44.6732 13.7566C44.4622 13.5456 44.1761 13.4271 43.8777 13.4271C43.5793 13.4271 43.2932 13.5456 43.0822 13.7566L16.0796 40.7593C15.9751 40.8637 15.8922 40.9877 15.8357 41.1242C15.7791 41.2607 15.75 41.407 15.75 41.5547C15.75 41.7025 15.7791 41.8488 15.8357 41.9853C15.8922 42.1217 15.9751 42.2458 16.0796 42.3502L27.3296 53.6001ZM58.8322 22.0975C58.9367 22.202 59.0607 22.2849 59.1972 22.3414C59.3337 22.398 59.48 22.4271 59.6277 22.4271C59.7754 22.4271 59.9217 22.398 60.0582 22.3414C60.1947 22.2849 60.3187 22.202 60.4232 22.0975L63.6051 18.9156C64.6584 17.8598 65.25 16.4294 65.25 14.9381C65.25 13.4468 64.6584 12.0163 63.6051 10.9606L58.7191 6.07459C57.6634 5.02125 56.2329 4.42969 54.7416 4.42969C53.2503 4.42969 51.8199 5.02125 50.7641 6.07459L47.5822 9.25659C47.4778 9.36105 47.3949 9.48506 47.3383 9.62155C47.2818 9.75804 47.2527 9.90433 47.2527 10.0521C47.2527 10.1998 47.2818 10.3461 47.3383 10.4826C47.3949 10.6191 47.4778 10.7431 47.5822 10.8475L58.8322 22.0975Z" fill="#E4E4E4"/>
</svg>
