<svg width="72" height="72" viewBox="0 0 72 72" fill="none" xmlns="http://www.w3.org/2000/svg">
<circle cx="36" cy="36" r="35" fill="#FFFCFC" stroke="#E4E4E4" stroke-width="2"/>
<path d="M48.0264 25.1011V58.1058C48.0264 59.643 46.7604 60.909 45.2232 60.909H23.4763C21.9391 60.909 20.6732 59.643 20.6732 58.1058V25.1011H48.0264ZM40.9281 28.7633V57.1564H42.5557V28.7633H40.9281ZM33.5586 28.7633V57.1564H35.1862V28.7633H33.5586ZM26.189 28.7633V57.1564H27.8166V28.7633H26.189ZM27.9975 17.4603V15.1093C27.9975 13.6173 29.173 12.4418 30.665 12.4418H38.0797C39.5717 12.4418 40.7473 13.6173 40.7473 15.1093V17.4603H48.9306C50.4678 17.4603 51.7338 18.7262 51.7338 20.2634V22.2076H17.011V20.2182C17.011 18.681 18.2769 17.4151 19.8141 17.4151H27.9975V17.4603ZM30.665 14.2502C30.2129 14.2502 29.8512 14.6119 29.8512 15.0641V17.4151H38.9388V15.0641C38.9388 14.6119 38.5771 14.2502 38.125 14.2502H30.665Z" fill="#FB8500"/>
</svg>
