<svg width="72" height="72" viewBox="0 0 72 72" fill="none" xmlns="http://www.w3.org/2000/svg">
<circle cx="36" cy="36" r="34.5" fill="#FFFCFC" stroke="#57CC99" stroke-width="3"/>
<g opacity="0.9">
<path d="M13.9614 52.8043C14.3876 53.446 15.1049 53.8333 15.8749 53.8333H50.2499C51.1666 53.8333 51.9962 53.2879 52.356 52.4445L59.231 36.4029C59.3816 36.0544 59.4431 35.6739 59.41 35.2957C59.3768 34.9175 59.2501 34.5535 59.0411 34.2365C58.8321 33.9196 58.5476 33.6596 58.213 33.4801C57.8785 33.3006 57.5046 33.2072 57.1249 33.2083H54.8332V26.3333C54.8332 23.8056 52.7776 21.75 50.2499 21.75H34.9989L29.1414 17.1666H18.1666C15.6389 17.1666 13.5833 19.2223 13.5833 21.75V51.5416H13.5993C13.5942 51.9888 13.7201 52.4278 13.9614 52.8043ZM50.2499 26.3333V33.2083H22.7499C21.8333 33.2083 21.0037 33.7537 20.6439 34.597L18.1666 40.3789V26.3333H50.2499Z" fill="#023047"/>
</g>
</svg>
