<svg width="72" height="72" viewBox="0 0 72 72" fill="none" xmlns="http://www.w3.org/2000/svg">
<circle cx="36" cy="36" r="34.5" fill="#FFFCFC" stroke="#57CC99" stroke-width="3"/>
<path d="M54.8333 12.5834H18.1666C15.6389 12.5834 13.5833 14.639 13.5833 17.1667V58.4167L25.8047 49.25H54.8333C57.361 49.25 59.4166 47.1944 59.4166 44.6667V17.1667C59.4166 14.639 57.361 12.5834 54.8333 12.5834ZM54.8333 44.6667H24.2785L18.1666 49.25V17.1667H54.8333V44.6667Z" fill="#57CC99"/>
<path d="M43.3751 35.5C45.9064 35.5 47.9584 33.448 47.9584 30.9167C47.9584 28.3854 45.9064 26.3334 43.3751 26.3334C40.8438 26.3334 38.7917 28.3854 38.7917 30.9167C38.7917 33.448 40.8438 35.5 43.3751 35.5Z" fill="#57CC99"/>
<path d="M29.6251 35.5C32.1564 35.5 34.2084 33.448 34.2084 30.9167C34.2084 28.3854 32.1564 26.3334 29.6251 26.3334C27.0938 26.3334 25.0417 28.3854 25.0417 30.9167C25.0417 33.448 27.0938 35.5 29.6251 35.5Z" fill="#57CC99"/>
</svg>
