<svg width="72" height="72" viewBox="0 0 72 72" fill="none" xmlns="http://www.w3.org/2000/svg">
<circle cx="36" cy="36" r="34.5" fill="#FFFCFC" stroke="#57CC99" stroke-width="3"/>
<path d="M45.6666 41.0834H46.8124C48.7076 41.0834 50.2499 39.5411 50.2499 37.6459V17.0209C50.2499 15.1257 48.7076 13.5834 46.8124 13.5834H17.0208C15.1255 13.5834 13.5833 15.1257 13.5833 17.0209V50.25L25.8047 41.0834H45.6666ZM24.2785 36.5L18.1666 41.0834V18.1667H45.6666V36.5H24.2785Z" fill="#57CC99"/>
<path d="M55.9791 27.3334H54.8333V41.0857C54.8333 43.6065 52.7868 45.653 50.2728 45.6667H27.3333V46.8125C27.3333 48.7077 28.8755 50.25 30.7708 50.25H47.1951L59.4166 59.4167V30.7709C59.4166 28.8757 57.8743 27.3334 55.9791 27.3334Z" fill="#023047"/>
</svg>
